<svg xmlns="http://www.w3.org/2000/svg" viewBox="0 0 24 30" x="0px" y="0px"><title>ui 64</title><g data-name="Layer 2"><path d="M13.25,6A4.756,4.756,0,0,0,8.5,10.75c0,2.408-1.223,5.618-3.2,6.605a1,1,0,0,0,.447,1.895.984.984,0,0,0,.445-.105c2.8-1.4,4.3-5.369,4.3-8.395a2.75,2.75,0,0,1,5.5,0c0,5.156,0,7.086-3.457,10.543a1,1,0,1,0,1.414,1.414C18,18.664,18,16.184,18,10.75A4.756,4.756,0,0,0,13.25,6Z"/><path d="M13.25,1a8.51,8.51,0,0,0-8.5,8.5c0,3.336-1.022,4.359-2.207,5.543a1,1,0,1,0,1.415,1.413C5.267,15.147,6.75,13.663,6.75,9.5a6.5,6.5,0,0,1,13,0c0,6.155,0,7.264-2.395,12.053A1,1,0,0,0,17.8,22.9a1.011,1.011,0,0,0,.445.105,1,1,0,0,0,.9-.553C21.75,17.236,21.75,15.9,21.75,9.5A8.51,8.51,0,0,0,13.25,1Z"/><path d="M13.268,16.2c.087-.305.174-.608.267-.907a1,1,0,0,0-.661-1.251A1.024,1.024,0,0,0,12.579,14a1,1,0,0,0-.956.705c-.1.31-.185.625-.276.941l-.032.109c-.508,1.782-.989,3.464-2.261,4.1A1,1,0,0,0,9.5,21.75a1.011,1.011,0,0,0,.445-.105c2.061-1.03,2.687-3.221,3.292-5.341Z"/></g><text x="0" y="39" fill="#000000" font-size="5px" font-weight="bold" font-family="'Helvetica Neue', Helvetica, Arial-Unicode, Arial, Sans-serif">Created by Nursila</text><text x="0" y="44" fill="#000000" font-size="5px" font-weight="bold" font-family="'Helvetica Neue', Helvetica, Arial-Unicode, Arial, Sans-serif">from the Noun Project</text></svg>