<svg xmlns="http://www.w3.org/2000/svg" xmlns:xlink="http://www.w3.org/1999/xlink" version="1.1" x="0px" y="0px" viewBox="0 0 100 125" enable-background="new 0 0 100 100" xml:space="preserve"><path d="M50.296,39.753c-1.702,0.682-1.869,0.583-2.06,0.318c-0.328-0.457-0.094-1.022,0.642-1.55  c0.438-0.314,1.507-0.977,1.975-0.328l2.436-1.751c-0.915-1.273-2.629-1.986-4.679-1.18l-0.954-1.332l-2.44,1.746l0.928,1.296  c-1.436,1.635-1.263,3.566-0.346,4.847c1.658,2.307,4.135,1.312,5.615,0.718c1.833-0.735,2.095-0.65,2.422-0.193  c0.209,0.29,0.184,0.437,0.176,0.492c-0.021,0.125-0.162,0.586-1.121,1.274c-0.271,0.195-1.195,0.78-1.676,0.111l-2.435,1.753  c0.738,1.025,1.838,1.551,3.029,1.551c0.545,0,1.107-0.124,1.664-0.347l0.83,1.158l2.439-1.748l-0.848-1.182  c0.58-0.659,0.959-1.353,1.079-2.084c0.153-0.935-0.089-1.879-0.7-2.729C54.465,38.081,51.856,39.129,50.296,39.753z"/><path d="M83.675,55.084l-19.464,8.453l6.903,2.953c-5.556,8.999-16.036,14.792-26.737,14.263  c-15.092-0.258-28.605-12.889-30.106-28.156c-2.114-15.635,8.672-31.768,24.105-36.159l-0.324-3.136  c-11.16,2.165-20.719,9.334-26.256,19.694c-5.711,10.686-6.331,23.062-1.7,33.953c4.685,11.354,14.233,19.927,26.2,23.528  c12.241,3.683,25.273,1.727,35.755-5.368c4.987-3.36,9.268-7.802,12.501-12.868l6.449,2.759L83.675,55.084z"/><path d="M92.722,24.243c-0.448-0.63-1.322-0.777-1.952-0.331c-1.662,1.18-6.17,4.361-7.069,4.905  c-0.968,0.562-9.105,2.861-19.349,5.468c-1.607,0.41-3.724,0.567-4.677-1.01c-0.425-0.701-0.551-1.527-0.355-2.324  c0.191-0.777,0.666-1.436,1.339-1.861l2.72-1.304l9.495-4.204c0.707-0.313,1.026-1.14,0.713-1.847  c-0.313-0.707-1.138-1.025-1.847-0.713l-2.324,1.029l-5.806-8.09l-8.761,6.287c1.447-4.736,2.921-7.583,3.955-7.86  c2.097-0.562,19.66-1.436,30.953-1.886c0.772-0.031,1.374-0.682,1.343-1.455c-0.031-0.773-0.651-1.363-1.455-1.343  C86.74,7.819,61.152,8.859,58.081,9.682c-3.033,0.814-5.327,6.962-6.901,13.2L20.411,44.964l17.162,23.908l43.198-31.003  l-3.041-4.238c3.608-1.015,6.649-1.951,7.42-2.418c1.171-0.709,6.994-4.843,7.241-5.018C93.021,25.747,93.17,24.873,92.722,24.243z   M57.697,48.194c-3.902,3.674-10.044,3.488-13.715-0.416c-3.675-3.905-3.487-10.045,0.412-13.719  c3.906-3.673,10.045-3.487,13.722,0.416C61.786,38.379,61.6,44.521,57.697,48.194z"/><text x="0" y="115" fill="#000000" font-size="5px" font-weight="bold" font-family="'Helvetica Neue', Helvetica, Arial-Unicode, Arial, Sans-serif">Created by Tomas Knopp</text><text x="0" y="120" fill="#000000" font-size="5px" font-weight="bold" font-family="'Helvetica Neue', Helvetica, Arial-Unicode, Arial, Sans-serif">from the Noun Project</text></svg>