<svg xmlns="http://www.w3.org/2000/svg" version="1.1" viewBox="-5.0 -10.0 110.0 135.0">
 <path d="m48.316 46.609c0.85156 1.1055 2.5195 1.1055 3.375 0l13.102-16.953c1.082-1.3984 0.082031-3.4258-1.6875-3.4258h-6.2422l0.003907-22.398c0-1.7617-1.4297-3.1914-3.1953-3.1914h-7.2852c-1.7656 0-3.1953 1.4297-3.1953 3.1914v22.398h-6.2656c-1.7695 0-2.7656 2.0273-1.6875 3.4258z"/>
 <path d="m28.316 44.82h-6.2422v-22.395c0-1.7617-1.4297-3.1914-3.1953-3.1914h-7.2812c-1.7656 0-3.1953 1.4297-3.1953 3.1914v22.398l-6.2695-0.003907c-1.7695 0-2.7656 2.0273-1.6875 3.4258l13.082 16.953c0.85156 1.1055 2.5195 1.1055 3.375 0l13.102-16.953c1.082-1.3945 0.082032-3.4258-1.6875-3.4258z"/>
 <path d="m97.867 44.82h-6.2422v-22.395c0-1.7617-1.4297-3.1914-3.1953-3.1914h-7.2852c-1.7656 0-3.1953 1.4297-3.1953 3.1914v22.398h-6.2656c-1.7695 0-2.7656 2.0273-1.6875 3.4258l13.082 16.953c0.85156 1.1055 2.5195 1.1055 3.375 0l13.102-16.953c1.0781-1.3984 0.082031-3.4297-1.6875-3.4297z"/>
 <path d="m50.004 63.676c-9.8672 0-17.895 8.0039-17.895 17.844 0 9.8398 8.0273 17.844 17.895 17.844 9.8672 0 17.895-8.0039 17.895-17.844-0.003907-9.8398-8.0312-17.844-17.895-17.844zm6.582 22.379c-0.015626 3.207-2.3477 5.8477-5.3203 6.1523v2.957c0 0.70703-0.57422 1.2812-1.2812 1.2812s-1.2812-0.57422-1.2812-1.2812v-3c-2.043-0.28125-3.8984-1.4023-5.0898-3.1211-0.40234-0.58203-0.25781-1.3789 0.32031-1.7812 0.58203-0.40234 1.3789-0.26172 1.7812 0.32031 0.91016 1.3086 2.4062 2.0898 4.0039 2.0898h0.96875c1.8047 0 3.3281-1.668 3.332-3.6445 0-2.7578-2.4961-3.4336-4.8594-3.4883-3.2422-0.050781-5.9609-2.7969-5.9609-6.043 0-3.0938 2.4688-5.7188 5.5039-6.0039v-3.1641c0-0.70703 0.57422-1.2812 1.2812-1.2812s1.2812 0.57422 1.2812 1.2812v3.1953c1.793 0.21875 3.457 1.082 4.6641 2.4453 0.46875 0.53125 0.42187 1.3398-0.10938 1.8086-0.52734 0.46875-1.3398 0.42188-1.8086-0.10938-0.92188-1.043-2.2539-1.6406-3.6484-1.6406h-1.1055c-1.8945 0-3.4922 1.582-3.4922 3.4531 0 1.9023 1.5977 3.4961 3.4922 3.4961 3.7578-0.054687 7.3789 1.9453 7.3281 6.0508 0.003906 0.011718 0.003906 0.019531 0 0.027344z"/>
<text x="0.0" y="117.5" font-size="5.0" font-weight="bold" font-family="Arbeit Regular, Helvetica, Arial-Unicode, Arial, Sans-serif" fill="#000000">Created by SBTS</text><text x="0.0" y="122.5" font-size="5.0" font-weight="bold" font-family="Arbeit Regular, Helvetica, Arial-Unicode, Arial, Sans-serif" fill="#000000">from Noun Project</text></svg>