<svg xmlns="http://www.w3.org/2000/svg" version="1.1" viewBox="-5.0 -10.0 110.0 135.0">
 <path d="m41.652 44.262 5.0938 4.6914 11.477-12.672 2.8359 2.5664-14.07 15.535-7.9297-7.3008zm20.746-11.746c-11.016-11.016-29.934-3.1758-29.934 12.398 0 15.57 18.914 23.414 29.934 12.398 6.8477-6.8477 6.8477-17.949 0-24.797zm-12.398-8.9766c-11.805 0-21.371 9.5703-21.371 21.371 0 18.98 23.055 28.543 36.484 15.113 13.43-13.426 3.8672-36.484-15.113-36.484zm0-15.801-38.555 11.23v24.84c0 11.77 3.832 20.164 10.574 27.469 6.7148 7.2734 16.359 13.57 27.98 20.984 11.617-7.4141 21.266-13.711 27.98-20.984 6.7422-7.3047 10.574-15.699 10.574-27.469v-24.84z" fill-rule="evenodd"/>
<text x="0.0" y="117.5" font-size="5.0" font-weight="bold" font-family="Arbeit Regular, Helvetica, Arial-Unicode, Arial, Sans-serif" fill="#000000">Created by Arto Moro</text><text x="0.0" y="122.5" font-size="5.0" font-weight="bold" font-family="Arbeit Regular, Helvetica, Arial-Unicode, Arial, Sans-serif" fill="#000000">from Noun Project</text></svg>