<svg xmlns="http://www.w3.org/2000/svg" version="1.1" viewBox="-5.0 -10.0 110.0 135.0">
 <path d="m87.867 42.551c-0.83984 0-1.3477-0.96094-0.89063-1.6562 2.6211-3.9805 3.8086-8.9453 3.2617-13.617-0.64844-5.5156-3.707-10.762-8.1875-14.039-0.47656-0.34766-0.57812-1.0156-0.23047-1.4922 0.34766-0.47656 1.0156-0.58203 1.4922-0.23047 4.9492 3.6211 8.332 9.4219 9.0469 15.516 0.60547 5.1641-0.70703 10.645-3.6016 15.039-0.20312 0.3125-0.54297 0.48047-0.89062 0.48047z"/>
 <path d="m94.234 15.152c-0.37109 0-0.73047-0.19141-0.92969-0.53906-3.0195-5.2734-6.9648-8.5625-12.414-10.352-0.5625-0.18359-0.86719-0.78906-0.67969-1.3477 0.18359-0.5625 0.78906-0.86719 1.3477-0.68359 5.9844 1.9648 10.309 5.5625 13.605 11.32 0.39453 0.70312-0.125 1.6016-0.92969 1.6016z"/>
 <path d="m97.449 84.469-7.0078-9.7812c3.3789-7.5117-0.42578-15.523-3.8984-22.207-1.9062-3.6641-3.8086-7.332-5.7148-10.996 3.0859-6.6523 5.6797-15.359-0.097656-21.438-2.2305-2.3477-5.0039-3.6016-7.6133-4.4453 0.75-1.6836-0.28125-3.332-1.6641-4.2812-1.2812-0.88281-2.75-1.4492-4.2852-1.6562-0.16406-1.3203-0.54297-3.4336-1.3359-4.5273-1.668-2.293-4.3594-1.9844-5.9102 0.26953-0.87891 1.2773-1.4414 2.7344-1.6523 4.2617-0.10547 0.015625-0.20703 0.035156-0.3125 0.050781-4.6172-4.1445-7.082-8.6719-13.906-9.5508-2.8477-0.36719-9.9688-0.63281-14.582 4.7891-2.8555 3.3516-3.8398 7.8984-6.7891 11.176-2.9922 3.3242-7.5391 3.6914-11.16 6.0039-7.1719 4.5859-5.4023 14.227-3.6055 21.098 1.7305 6.6172 1.543 11.203 0.046876 17.816-2.1484 9.5039-2.3984 20.492 9.4258 23.555 12.41 3.2148 25.277 2.1602 37.93 1.6055 3.6094 1.3711 9.125 3.3672 12.008 3.8867l7.2266 9.4883c0.38281 0.5 1.1328 0.55859 1.5898 0.125 0.38672-0.37109 0.4375-0.99219 0.10938-1.418l-7.4844-9.8281c-0.17188-0.22656-0.42578-0.37109-0.70703-0.41016-3.8398-0.52344-15.293-5.125-15.422-5.1758-4.4492-1.707-15.727-7.2422-14.512-12.324 1.3516-5.6445 12.301 0.63672 14.918 2.2734 0.42969 0.26953 0.98438 0.19922 1.3359-0.16406 0.35156-0.36328 0.39844-0.92187 0.11719-1.3398-0.12109-0.17969-12.227-18.109-14.586-23.297-0.75781-1.6602-2.125-4.8203-0.80859-6.5859 1.8789-2.5156 5.1875 0.90625 6.3438 2.3242 2.5195 3.0938 4.9297 6.25 7.6211 9.1992 0.36328 0.39844 0.96484 0.46484 1.4062 0.15234s0.57812-0.90234 0.32422-1.375c-0.64844-1.2109-1.4492-2.6328-2.2969-4.1367-3.293-5.8398-8.2656-14.66-7.5-17.484 0.69922-2.5781 3.5664-2.5977 5.1602-0.72656 2.3516 2.7656 14.75 21.645 14.875 21.836 0.30078 0.45703 0.89453 0.61328 1.3789 0.36328 0.48438-0.25 0.70703-0.82422 0.51172-1.332-0.3125-0.81641-0.64062-1.6484-0.97266-2.4883-1.6094-4.0742-3.2773-8.2891-3.8125-12.395-0.31641-2.4258 0.52344-3.8086 1.4414-4.0664 0.85547-0.24609 2.1445 0.45312 3.0898 2.5508 1.9922 4.4258 3.9297 8.8242 5.6133 13.383 0.19922 0.53516 0.78125 0.82031 1.3242 0.64844s0.85547-0.74219 0.70703-1.293c-0.050781-0.1875-0.10156-0.37891-0.15625-0.57422-0.41797-1.5469-0.89453-3.2969-1.0039-4.9219-0.14062-2.1094 2.5859-3.1953 3.9336-1.5547 3.2383 3.9375 5.2188 9.4258 7.5547 13.922 3.2031 6.1602 7.1406 13.957 3.6094 20.84-0.18359 0.35547-0.15234 0.78516 0.082032 1.1094l7.375 10.293c0.34375 0.48047 1.0117 0.58984 1.4922 0.24609 0.48047-0.34766 0.58984-1.0156 0.24609-1.4922zm-82.332-41.93c-2.1719-5.0938-3.4844-10.934 3.25-15.633 0.48437-0.33594 1.1484-0.21875 1.4883 0.26562 0.33594 0.48438 0.21875 1.1484-0.26562 1.4883-4.5352 3.1602-5.2148 6.6953-2.5078 13.039 0.51953 1.2227-1.4062 2.1523-1.9648 0.83984zm18.754 19.277c-0.94531 0.6875-3.2539 1.0938-4.8945 1.2344-0.13672 1.6445-0.54297 3.9531-1.2305 4.8945-1.332 1.8281-2.9844 1.4688-4.1641-0.24609-0.94141-1.3633-1.4805-2.9961-1.5508-4.6523-1.6406-0.13672-3.9414-0.54688-4.8828-1.2305-1.8281-1.332-1.4688-2.9844 0.24609-4.168 1.3594-0.9375 2.9883-1.4805 4.6367-1.5508 0.070312-1.6523 0.61328-3.2773 1.5508-4.6406 1.1797-1.7148 2.8359-2.0742 4.1641-0.24609 0.6875 0.94141 1.0938 3.2422 1.2305 4.8828 1.6562 0.070312 3.2891 0.60938 4.6523 1.5508 1.7148 1.1875 2.0703 2.8398 0.24219 4.1719zm26.449-51.125c0.0625-1.4453 0.54688-2.8945 1.3633-4.0781 0.73438-1.0664 1.6133-1.332 2.4219-0.22266 0.43359 0.59766 0.86719 2.4258 1.0312 4.3438 0.046875 0.53516 0.48438 0.95703 1.0195 0.97656 1.4492 0.058593 2.9023 0.54297 4.0898 1.3633 1.0469 0.72266 1.3164 1.625 0.22266 2.4219-0.59766 0.4375-2.4297 0.87109-4.3555 1.0312-0.51953 0.042968-0.93359 0.45703-0.97656 0.97656-0.16016 1.9258-0.59375 3.7578-1.0312 4.3555-0.80859 1.1094-1.6797 0.85547-2.4219-0.22266-0.82031-1.1875-1.3008-2.6406-1.3633-4.0898-0.023437-0.53906-0.44141-0.97656-0.97656-1.0195-1.918-0.16016-3.7461-0.59375-4.3438-1.0312-1.0938-0.79688-0.82422-1.7031 0.22266-2.4219 1.1836-0.81641 2.6328-1.3008 4.0781-1.3633 0.55078-0.019532 0.99219-0.46484 1.0195-1.0195z"/>
 <path d="m24.242 94.434c-0.050782 0-0.10156-0.003906-0.15234-0.011719-4.0977-0.58203-8.3359-1.1875-12.281-2.8711-4.5391-1.9375-7.8711-5.0703-9.3789-8.8203-0.21875-0.54688 0.046874-1.168 0.59375-1.3906 0.54687-0.21875 1.168 0.046875 1.3906 0.59375 1.7461 4.3477 5.9102 6.6602 8.2344 7.6484 3.6875 1.5742 7.7852 2.1562 11.746 2.7188 1.2305 0.18359 1.1328 2.1328-0.15234 2.1328z"/>
<text x="0.0" y="117.5" font-size="5.0" font-weight="bold" font-family="Arbeit Regular, Helvetica, Arial-Unicode, Arial, Sans-serif" fill="#000000">Created by Shocho</text><text x="0.0" y="122.5" font-size="5.0" font-weight="bold" font-family="Arbeit Regular, Helvetica, Arial-Unicode, Arial, Sans-serif" fill="#000000">from Noun Project</text></svg>