<svg xmlns="http://www.w3.org/2000/svg" version="1.1" viewBox="-5.0 -10.0 110.0 135.0">
 <path d="m77.734 31.25h-11.453v-11.844c0-8.9688-7.3125-16.281-16.281-16.281s-16.281 7.3125-16.281 16.281v11.844h-11.453c-1.7266 0-3.125 1.3984-3.125 3.125v53.125c0 3.4531 2.7969 6.25 6.25 6.25h49.219c3.4531 0 6.25-2.7969 6.25-6.25v-53.125c0-1.7266-1.3984-3.125-3.125-3.125zm-37.766-11.844c0-5.5312 4.5-10.031 10.031-10.031s10.031 4.5 10.031 10.031v11.844h-20.062zm20.727 52.715c-0.93359 3.3828-3.8359 5.7812-7.5703 6.5234v1.3281c0 1.7266-1.3984 3.125-3.125 3.125s-3.125-1.3984-3.125-3.125v-1.6484c-3.2422-1.0664-5.6133-3.4961-6.2422-6.6602-0.33594-1.6914 0.75781-3.3359 2.4531-3.6758 1.6992-0.35547 3.3359 0.76172 3.6758 2.4531 0.30859 1.5508 2.1484 2.1641 3.6328 2.2188 1.8242 0.09375 3.8594-0.67188 4.2852-2.2109 0.44531-1.5859-0.79688-2.6406-6.0195-5.1328-4.5039-2.1484-11.316-5.3984-9.3516-12.441 0.93359-3.3906 3.8086-5.7461 7.5703-6.5039v-1.3477c0-1.7266 1.3984-3.125 3.125-3.125 1.7266 0 3.125 1.3984 3.125 3.125v1.6484c3.2422 1.0664 5.6133 3.4961 6.2422 6.6602 0.33594 1.6914-0.75781 3.3359-2.4531 3.6758-1.7031 0.35156-3.3359-0.76172-3.6758-2.4531-0.30859-1.5508-2.1484-2.1641-3.6328-2.2188-1.8008-0.058594-3.8594 0.67578-4.2852 2.2109-0.44531 1.5859 0.79688 2.6406 6.0195 5.1328 4.5078 2.1484 11.316 5.3945 9.3516 12.441z"/>
<text x="0.0" y="117.5" font-size="5.0" font-weight="bold" font-family="Arbeit Regular, Helvetica, Arial-Unicode, Arial, Sans-serif" fill="#000000">Created by Rikas Dzihab</text><text x="0.0" y="122.5" font-size="5.0" font-weight="bold" font-family="Arbeit Regular, Helvetica, Arial-Unicode, Arial, Sans-serif" fill="#000000">from Noun Project</text></svg>